<svg xmlns="http://www.w3.org/2000/svg" version="1.1" width="256" height="256" viewBox="0 0 500 500">
    
  <rect width="500" height="500" rx="250" fill="#c4ddd6"></rect>

    <path fill="#99c9bd" d="M440.7 280.2c0 6.7-.4 13.1-1.2 19.2-1.1 7.9-2.9 15.2-5.3 21.9a86.3 86.3 0 01-20.7 32.6C393 374.3 362 385.2 325 390.6c-23 3.3-48.3 4.5-74.9 4.5a529 529 0 01-75-4.6c-68-9.8-115.7-38.4-115.7-110.3 0-96.3 85.4-174.3 190.7-174.3 95.7 0 175 64.4 188.6 148.3a161 161 0 012.1 26z"></path>
  
    <path fill="#b7e7db" d="M235 161.3c14.4 27.5 0 71-41.1 115.2-31.8 34.1-86.6 16.8-101-10.8s7.5-67.4 48.9-89 78.9-43 93.3-15.4z"></path>
  
    <path fill="#99c9bd" d="M169 122.4a192.3 192.3 0 00-68 49C76.4 142 81.3 125 110 88c31.7 0 58.3 4.1 59 34.5zM331 122.4a192.3 192.3 0 0168 49c24.6-29.4 19.6-46.4-9-83.5-31.7 0-58.3 4.1-59 34.5z"></path>
    <path fill="#fec3aa" d="M155.6 128.7c-20 10.5-37.8 24.1-52.4 40.2-16.6-20.5-20.3-33.3.4-60 21.5 0 47 2.5 52 19.8zM344.4 128.7c20 10.5 37.8 24.1 52.4 40.2 16.6-20.5 20.3-33.3-.4-60-21.5 0-47 2.5-52 19.8z"></path>
  
    <path fill="#15212a" d="M278.3 286.2a2 2 0 00-2 2c0 9.5-12.2 14.6-24.6 15V290h-3.4v13.2c-12.5-.4-24.6-5.5-24.6-15 0-1-.8-2-2-2s-2 1-2 2c0 6 3.5 11.1 10 14.6a44 44 0 0020.3 4.5c14.6 0 30.3-6 30.3-19 0-1.2-1-2-2-2z"></path>
    <path fill="#15212a" d="M272.4 275c0-6.4-10.1-11.6-22.5-11.6s-22.5 5.2-22.5 11.5c0 2 1.1 4 3 5.7 1 .8 2 1.7 3.2 2.4l8.7 5.8a13.5 13.5 0 0015.2 0l9.7-6.6 1-.7c2.7-1.9 4.2-4.1 4.2-6.6z"></path>
  
    <circle cx="169" cy="250" r="20.4" fill="#15212a"></circle>
    <circle cx="175.4" cy="255.8" r="9.6" fill="#fff"></circle>
    <circle cx="159.4" cy="241" r="4.2" fill="#fff"></circle>
    <circle cx="331" cy="250" r="20.4" fill="#15212a"></circle>
    <circle cx="324.6" cy="255.8" r="9.6" fill="#fff"></circle>
    <circle cx="340.6" cy="241" r="4.2" fill="#fff"></circle>
  
    <path fill="#15212a" d="M333 196.7h-.4l-27.6-2.1a5 5 0 01.8-10l27.5 2a5 5 0 01-.3 10zM166.6 196.7h.4l27.5-2.1a5 5 0 00-.7-10l-27.6 2a5 5 0 00.4 10z"></path>
  
  </svg>