<svg xmlns="http://www.w3.org/2000/svg" version="1.1" width="256" height="256" viewBox="0 0 500 500">
    
  <rect width="500" height="500" rx="250" fill="#ece2e1"></rect>

    <path fill="#b18272" d="M440.7 280.2c0 6.7-.4 13.1-1.2 19.2-1.1 7.9-2.9 15.2-5.3 21.9a86.3 86.3 0 01-20.7 32.6C393 374.3 362 385.2 325 390.6c-23 3.3-48.3 4.5-74.9 4.5a529 529 0 01-75-4.6c-68-9.8-115.7-38.4-115.7-110.3 0-96.3 85.4-174.3 190.7-174.3 95.7 0 175 64.4 188.6 148.3a161 161 0 012.1 26z"></path>
  
    <path fill="#936454" d="M71.4 144.8c-7.5-15.8 70.4-53.2 78-37.5 8.7 23 7.8 43-1.6 60.6a32 32 0 01-33.8 16.5c-21.4-3.7-35.8-16.6-42.6-39.6zM423.4 144.8c7.6-15.8-70.3-53.2-78-37.5-8.7 23-7.7 43 1.7 60.6a32 32 0 0033.8 16.5c21.4-3.7 35.8-16.6 42.5-39.6z"></path>
  
    <path fill="#eabf9f" d="M202.2 99.6c34-8 67.5-7.6 100.4.9 9.3 2.3 14.9 8 13.7 14-7.5 39.7-60.1 79.2-70 71.6-10.8-8.2 2.3-31.4-9.5-33.1-10.4-1.5-25.9 15.9-37.8 11.8-2.7-.9-4.3-2.7-4.2-4.6a161 161 0 00-5.6-46.6c-1.8-6 3.6-11.8 13-14z"></path>
  
    <path fill="#15212a" d="M250 278.7c-15.5 0-21.2 4.1-21.2 12.9 0 8.7 21.2 21.8 21.2 21.8s21.2-12.5 21.2-21.8-5.7-12.9-21.2-12.9z"></path>
    <path fill="#15212a" d="M319.2 321c-.4-.9-1.4-1.3-2.4-1-21 9-42.8 13.5-65 13.5v-25.8a1.8 1.8 0 10-3.6 0v25.8c-21.3-.4-43-5-65.1-13.4-1-.4-2 0-2.3 1-.4.9 0 2 1 2.3a193.4 193.4 0 0068.7 13.7h1c22.8 0 45.1-4.6 66.7-13.7 1-.4 1.4-1.5 1-2.4z"></path>
  
    <circle cx="169" cy="254.5" r="17.2" fill="#15212a"></circle>
    <circle cx="175.3" cy="247.8" r="5.9" fill="#fff"></circle>
    <circle cx="331" cy="254.5" r="17.2" fill="#15212a"></circle>
    <circle cx="324.7" cy="247.8" r="5.9" fill="#fff"></circle>
  
    <path fill="#15212a" d="M139.8 203c-1 0-2-.3-2.8-.9a5 5 0 01-1.3-7c10.5-15.5 25.8-20.4 45.7-14.5a5 5 0 11-2.9 9.6c-15.6-4.7-26.6-1.3-34.5 10.6a5 5 0 01-4.2 2.2zM361.4 203a5 5 0 01-4.2-2.2c-8-12-19-15.3-34.5-10.6a5 5 0 11-2.9-9.6c19.9-6 35.2-1 45.7 14.6a5 5 0 01-4.1 7.8z"></path>
  
  </svg>