<svg xmlns="http://www.w3.org/2000/svg" version="1.1" width="256" height="256" viewBox="0 0 500 500">
    
  <rect width="500" height="500" rx="250" fill="#c4ddd6"></rect>

    <path fill="#ec8a90" d="M440.7 280.2c0 6.7-.4 13.1-1.2 19.2-1.1 7.9-2.9 15.2-5.3 21.9a86.3 86.3 0 01-20.7 32.6C393 374.3 362 385.2 325 390.6c-23 3.3-48.3 4.5-74.9 4.5a529 529 0 01-75-4.6c-68-9.8-115.7-38.4-115.7-110.3 0-96.3 85.4-174.3 190.7-174.3 95.7 0 175 64.4 188.6 148.3a161 161 0 012.1 26z"></path>
  
    <path fill="#ffa8ae" d="M156 387.1c-57.8-12.3-96.7-42-96.7-107 0-9.4.8-18.6 2.4-27.6 19.1 3.4 39.3 17 53.6 38.1a105 105 0 015 8.2 73.6 73.6 0 0021 23.8c4.9 3.6 9.5 8.3 13.3 14 12.3 18.2 12.6 40 1.3 50.5z"></path>
  
    <path fill="#ec8a90" d="M401.5 174.3l-5.9-6.7a185.5 185.5 0 00-39.2-32c24.6-43.7 98-5.4 45 38.7zM98.5 174.3l6-6.7a185.5 185.5 0 0139.1-32c-24.5-43.7-98-5.4-45 38.7z"></path>
    <path fill="#fec3aa" d="M395.6 167.6c-8.7-9.4-18.6-18-29.3-25.5 16.3-26.9 62.3-2.6 29.3 25.5zM104.4 167.6c8.8-9.4 18.6-18 29.3-25.5-16.3-26.9-62.3-2.6-29.3 25.5zM360 71.1l-1 14.7-1.7 27.9-.3 6.3-1 15.3a201 201 0 00-72-26.6l18.7-28.8 10.9-17 4.3-6.6c2.3-3.7 6.9-5.2 11-3.7l25 9.3a9.3 9.3 0 016 9.2zM216.1 108.7a201 201 0 00-71.9 26.6l-1-15.3-.3-6.3-1.7-27.9-.9-14.7c-.2-4 2.2-7.8 6-9.2l25-9.3c4.1-1.5 8.7 0 11 3.7l4.3 6.6 10.3 16 .7 1 10.2 15.8 8.3 13z"></path>
    <path fill="#ec8a90" d="M337.5 72c0 5-10.5 9-23.5 9-4.1 0-8-.4-11.4-1.1l11-17h.4c13 0 23.5 4 23.5 9zM359 85.8l-1.7 27.9c-11.9-1.3-20.8-7-20.8-13.9 0-7.2 9.8-13.1 22.5-14zM207.8 95.7a73 73 0 01-13 3.8c-15.6 3.1-29 1.2-30-4.3-1.1-5.4 10.6-12.3 26-15.4l6.1-1 .7 1 10.2 16z"></path>
  
    <path fill="#fff" d="M324.7 343.4c0 34.5-33.4 29.8-74.7 29.8s-74.7 4.7-74.7-29.8 33.4-62.2 74.7-62.2 74.7 27.8 74.7 62.3z"></path>
    <path fill="#15212a" d="M274.4 312.3c-.9 0-1.5.7-1.5 1.5 0 6-5.6 8.7-10.7 8.7-4.9 0-10.1-2.5-10.6-7.8v-14.3c13-.1 23.3-1.5 23.3-10.1 0-9-11.2-16.2-24.9-16.2s-24.9 7.2-24.9 16.2c0 8.6 10.3 10 23.3 10v14.5c-.5 5.3-5.7 7.7-10.6 7.7-5.1 0-10.6-2.7-10.6-8.7a1.5 1.5 0 10-3 0c0 3.6 1.5 6.7 4.4 8.8 2.4 1.9 5.7 2.9 9.2 2.9 4.9 0 9.8-2.1 12.2-6.1.7 1.2 1.7 2.3 3 3.2 2.4 1.8 5.7 2.8 9.2 2.8 6.8 0 13.7-4 13.7-11.6 0-.8-.7-1.5-1.5-1.5z"></path>
  
    <circle fill="#15212a" cx="180.11" cy="258.32" r="17.11"></circle>
    <circle fill="#fff" cx="174.66" cy="252.88" r="5.44"></circle>
    <circle fill="#15212a" cx="320.02" cy="258.32" r="17.11"></circle>
    <circle fill="#fff" cx="314.58" cy="252.88" r="5.44"></circle>
  
    <path fill="#15212a" d="M139.8 203c-1 0-2-.3-2.8-.9a5 5 0 01-1.3-7c10.5-15.5 25.8-20.4 45.7-14.5a5 5 0 11-2.9 9.6c-15.6-4.7-26.6-1.3-34.5 10.6a5 5 0 01-4.2 2.2zM361.4 203a5 5 0 01-4.2-2.2c-8-12-19-15.3-34.5-10.6a5 5 0 11-2.9-9.6c19.9-6 35.2-1 45.7 14.6a5 5 0 01-4.1 7.8z"></path>
  
  </svg>