<svg xmlns="http://www.w3.org/2000/svg" version="1.1" width="256" height="256" viewBox="0 0 500 500">
    
  <rect width="500" height="500" rx="250" fill="#fcf7d1"></rect>

    <path fill="#d7b89c" d="M440.7 280.2c0 6.7-.4 13.1-1.2 19.2-1.1 7.9-2.9 15.2-5.3 21.9a86.3 86.3 0 01-20.7 32.6C393 374.3 362 385.2 325 390.6c-23 3.3-48.3 4.5-74.9 4.5a529 529 0 01-75-4.6c-68-9.8-115.7-38.4-115.7-110.3 0-96.3 85.4-174.3 190.7-174.3 95.7 0 175 64.4 188.6 148.3a161 161 0 012.1 26z"></path>
  
    <path fill="#f5d6ba" d="M235 161.3c14.4 27.5 0 71-41.1 115.2-31.8 34.1-86.6 16.8-101-10.8s7.5-67.4 48.9-89 78.9-43 93.3-15.4z"></path>
  
    <path fill="#d7b89c" d="M169 122.4a184.8 184.8 0 00-79.3 63.4c-6.5 9-12 18.8-16.5 29C64.7 177.9 46.6 85.4 78.9 84c27-1.1 66.6 22.4 90.1 38.3zM426.7 214.5c-3.9-8.7-8.5-17-13.7-24.9a184.5 184.5 0 00-82.1-67.3c23.5-15.8 63.1-39.4 90-38.2 32.3 1.3 14.3 93.3 5.8 130.4z"></path>
    <path fill="#fec3aa" d="M149.2 132.2c-23.9 13.6-44.3 32-59.5 53.6-5.7-27-13.2-74.9 5.5-75.7 15.9-.6 38.7 12.1 54 22zM413 189.6a184.5 184.5 0 00-65.4-59.1c16.7-11 42-25.3 59.6-24.6 20.6 1 12 54.6 5.8 83.7z"></path>
  
    <path fill="#eabf9f" d="M202.2 99.6c34-8 67.5-7.6 100.4.9 9.3 2.3 14.9 8 13.7 14-7.5 39.7-60.1 79.2-70 71.6-10.8-8.2 2.3-31.4-9.5-33.1-10.4-1.5-25.9 15.9-37.8 11.8-2.7-.9-4.3-2.7-4.2-4.6a161 161 0 00-5.6-46.6c-1.8-6 3.6-11.8 13-14z"></path>
  
    <path fill="#15212a" d="M278.3 286.2a2 2 0 00-2 2c0 9.5-12.2 14.6-24.6 15V290h-3.4v13.2c-12.5-.4-24.6-5.5-24.6-15 0-1-.8-2-2-2s-2 1-2 2c0 6 3.5 11.1 10 14.6a44 44 0 0020.3 4.5c14.6 0 30.3-6 30.3-19 0-1.2-1-2-2-2z"></path>
    <path fill="#15212a" d="M272.4 275c0-6.4-10.1-11.6-22.5-11.6s-22.5 5.2-22.5 11.5c0 2 1.1 4 3 5.7 1 .8 2 1.7 3.2 2.4l8.7 5.8a13.5 13.5 0 0015.2 0l9.7-6.6 1-.7c2.7-1.9 4.2-4.1 4.2-6.6z"></path>
  
    <circle cx="169" cy="250" r="20.4" fill="#15212a"></circle>
    <circle cx="175.4" cy="255.8" r="9.6" fill="#fff"></circle>
    <circle cx="159.4" cy="241" r="4.2" fill="#fff"></circle>
    <circle cx="331" cy="250" r="20.4" fill="#15212a"></circle>
    <circle cx="324.6" cy="255.8" r="9.6" fill="#fff"></circle>
    <circle cx="340.6" cy="241" r="4.2" fill="#fff"></circle>
  
    <path fill="#15212a" d="M333 196.7h-.4l-27.6-2.1a5 5 0 01.8-10l27.5 2a5 5 0 01-.3 10zM166.6 196.7h.4l27.5-2.1a5 5 0 00-.7-10l-27.6 2a5 5 0 00.4 10z"></path>
  
  </svg>