<svg xmlns="http://www.w3.org/2000/svg" version="1.1" width="256" height="256" viewBox="0 0 500 500">
    
  <rect width="500" height="500" rx="250" fill="#ece2e1"></rect>

    <path fill="#b18272" d="M440.7 280.2c0 6.7-.4 13.1-1.2 19.2-1.1 7.9-2.9 15.2-5.3 21.9a86.3 86.3 0 01-20.7 32.6C393 374.3 362 385.2 325 390.6c-23 3.3-48.3 4.5-74.9 4.5a529 529 0 01-75-4.6c-68-9.8-115.7-38.4-115.7-110.3 0-96.3 85.4-174.3 190.7-174.3 95.7 0 175 64.4 188.6 148.3a161 161 0 012.1 26z"></path>
  
    <path fill="#b18272" d="M169 122.4a184.8 184.8 0 00-79.3 63.4c-6.5 9-12 18.8-16.5 29C64.7 177.9 46.6 85.4 78.9 84c27-1.1 66.6 22.4 90.1 38.3zM426.7 214.5c-3.9-8.7-8.5-17-13.7-24.9a184.5 184.5 0 00-82.1-67.3c23.5-15.8 63.1-39.4 90-38.2 32.3 1.3 14.3 93.3 5.8 130.4z"></path>
    <path fill="#fec3aa" d="M149.2 132.2c-23.9 13.6-44.3 32-59.5 53.6-5.7-27-13.2-74.9 5.5-75.7 15.9-.6 38.7 12.1 54 22zM413 189.6a184.5 184.5 0 00-65.4-59.1c16.7-11 42-25.3 59.6-24.6 20.6 1 12 54.6 5.8 83.7z"></path>
  
    <path fill="#936454" d="M305.2 329c0 25-24.7 45.2-55.2 45.2S194.8 354 194.8 329c0-14 7.7-26.5 20-34.8 3.6 4.6 9 7.5 14.6 10.4-8.2-6.1-12-11.5-13.6-16.5-.4-1.4-.7-2.7-.9-4.1-1.3-9.8 2.1-18.6 9.4-21.9 8.4-3.8 19.3 1.4 25.7 11.8 6.4-10.4 17.3-15.6 25.7-11.8 8.4 3.8 11.6 15 8.4 26.4v.2c-1.7 4.8-5.6 10-13.5 16 5.6-3 11-6 14.7-10.5a42.5 42.5 0 0 1 20 34.8z"></path>
    <path fill="#15212a" d="M243.2 294.8c8-3.7 5-17-2.1-20.8-7.1-3.9-16.9 3-15.5 8.2s12.8 14.8 17.6 12.6zM256.8 294.8c-8-3.7-5-17 2.1-20.8 7.2-3.9 16.9 3 15.5 8.2-1.4 5.2-12.8 14.8-17.6 12.6z"></path>
    <path fill="#15212a" d="M294.2 338.9l-.5-.1c-28.5-9.9-57-9.7-84.9 0-.6.1-1 .3-1.4-.3-.3-.6 0-1.1.5-1.4 11.3-5.8 25.7-5.8 35.8-9.3a18 18 0 0 1 11.8-.1c9.8 3.3 26.8 3.5 39 9.5.5.3 1 .8.7 1.4-.2.4-.6.3-1 .3z"></path>
  
    <circle fill="#15212a" cx="331.04" cy="253.21" r="22.21"></circle>
    <circle fill="#fff" cx="338.81" cy="246.07" r="8.97"></circle>
    <circle fill="#fff" cx="322.5" cy="263.97" r="5.01"></circle>
    <circle fill="#15212a" cx="168.96" cy="253.21" r="22.21"></circle>
    <circle fill="#fff" cx="161.19" cy="246.07" r="8.97"></circle>
    <circle fill="#fff" cx="177.5" cy="263.97" r="5.01"></circle>
  
    <ellipse fill="#15212a" cx="348" cy="190.6" rx="8.3" ry="19.4" transform="rotate(-57.5 348 190.6)"></ellipse>
    <ellipse fill="#15212a" cx="152" cy="205.1" rx="19.4" ry="8.3" transform="rotate(-32.5 152 205)"></ellipse>
  
  </svg>