<svg xmlns="http://www.w3.org/2000/svg" version="1.1" width="256" height="256" viewBox="0 0 500 500">
    
  <rect width="500" height="500" rx="250" fill="#fcf7d1"></rect>

    <path fill="#99c9bd" d="M440.7 280.2c0 6.7-.4 13.1-1.2 19.2-1.1 7.9-2.9 15.2-5.3 21.9a86.3 86.3 0 01-20.7 32.6C393 374.3 362 385.2 325 390.6c-23 3.3-48.3 4.5-74.9 4.5a529 529 0 01-75-4.6c-68-9.8-115.7-38.4-115.7-110.3 0-96.3 85.4-174.3 190.7-174.3 95.7 0 175 64.4 188.6 148.3a161 161 0 012.1 26z"></path>
  
    <path fill="#99c9bd" d="M104.3 167.8a176.9 176.9 0 00-21.6 28.8 67.7 67.7 0 01-24.4-12.8 38.1 38.1 0 01-14.1-29.4c-.4-7 .7-13.8 1.8-19.5 2.6-13.3 52.2 27.8 58.3 32.9zM395.8 167.8a176.9 176.9 0 0121.6 28.8 67.7 67.7 0 0024.4-12.8 38.1 38.1 0 0014.1-29.4c.3-7-.7-13.8-1.9-19.5-2.6-13.3-52.2 27.8-58.2 32.9z"></path>
    <path fill="#fec3aa" d="M91.3 183.6c-3.1 4.2-6 8.5-8.6 13a67.7 67.7 0 01-24.4-12.8 38.1 38.1 0 01-14.1-29.4c6.6.3 22 2 30.3 11 5.4 5.7 11.8 12.7 16.8 18.2zM408.8 183.6c3 4.2 6 8.5 8.6 13a67.7 67.7 0 0024.4-12.8 38.1 38.1 0 0014.1-29.4c-6.7.3-22 2-30.3 11-5.5 5.7-11.8 12.7-16.8 18.2z"></path>
    <path fill="#937155" d="M114 61.8s6.7-1 9.5 6.8 1 20.3 8.3 24.1c7.4 3.8 17.2 1.2 16.8-9.8-.4-11 3.2-19.3 10.7-15 7.6 4.5 10.6 13.6 9.4 30.2s-1 36.3-5.2 41.7c-4.2 5.3-20.1 5.3-25.5-2.2-5.4-7.6-8-11-16.3-16a61.2 61.2 0 01-24.1-29.3c-3.4-11.5-1.3-32.7 16.5-30.5zM385.8 61.8s-6.6-1-9.4 6.8-1 20.3-8.3 24.1c-7.4 3.8-17.2 1.2-16.8-9.8.4-11-3.2-19.3-10.8-15-7.5 4.5-10.5 13.6-9.3 30.2s1 36.3 5.2 41.7c4.2 5.3 20 5.3 25.5-2.2 5.4-7.6 8-11 16.3-16 8.4-5 20.7-17.7 24.1-29.3 3.4-11.5 1.2-32.7-16.5-30.5z"></path>
  
    <ellipse cx="250" cy="315" fill="#fff" rx="73.7" ry="48.3"></ellipse>
    <path fill="#15212a" d="M270 272a20 20 0 01-40.1 0c0-11.1 9-13.7 20-13.7 11.2 0 20.2 2.6 20.2 13.7z"></path>
    <path fill="#f3252f" d="M240.2 306c0 21.3 19.6 21.3 19.6 0l-7.3-3.6-3.4-3.5-3.3 6-5.6 1.1z"></path>
    <path fill="#15212a" d="M270.2 292c-.8-.1-1.5.5-1.6 1.3-.3 5-2.4 8.7-5.6 10.2a7.3 7.3 0 01-7.3-.5c-2.6-1.7-4-4.8-4.2-8.7v-1-1.1c0-.8-.6-1.6-1.4-1.6h-.1-.1c-.9 0-1.5.8-1.4 1.6v2.1c-.2 3.9-1.7 7-4.2 8.7a7.3 7.3 0 01-7.4.5c-3.2-1.5-5.2-5.3-5.5-10.2-.1-.8-.8-1.4-1.6-1.4-.9 0-1.5.8-1.4 1.6.4 6 3 10.7 7.2 12.7a10.4 10.4 0 0010.3-.7c1.8-1.1 3.1-2.8 4-4.8 1 2 2.3 3.7 4 4.8a10.3 10.3 0 0010.4.7c4.2-2 6.9-6.7 7.3-12.7 0-.8-.6-1.5-1.4-1.6z"></path>
  
    <circle fill="#15212a" cx="331.04" cy="253.21" r="22.21"></circle>
    <circle fill="#fff" cx="338.81" cy="246.07" r="8.97"></circle>
    <circle fill="#fff" cx="322.5" cy="263.97" r="5.01"></circle>
    <circle fill="#15212a" cx="168.96" cy="253.21" r="22.21"></circle>
    <circle fill="#fff" cx="161.19" cy="246.07" r="8.97"></circle>
    <circle fill="#fff" cx="177.5" cy="263.97" r="5.01"></circle>
  
    <path fill="#15212a" d="M139.8 203c-1 0-2-.3-2.8-.9a5 5 0 01-1.3-7c10.5-15.5 25.8-20.4 45.7-14.5a5 5 0 11-2.9 9.6c-15.6-4.7-26.6-1.3-34.5 10.6a5 5 0 01-4.2 2.2zM361.4 203a5 5 0 01-4.2-2.2c-8-12-19-15.3-34.5-10.6a5 5 0 11-2.9-9.6c19.9-6 35.2-1 45.7 14.6a5 5 0 01-4.1 7.8z"></path>
  
  </svg>