<svg xmlns="http://www.w3.org/2000/svg" version="1.1" width="256" height="256" viewBox="0 0 500 500">
    
  <rect width="500" height="500" rx="250" fill="#e4e3cd"></rect>

    <path fill="#99c9bd" d="M440.7 280.2c0 6.7-.4 13.1-1.2 19.2-1.1 7.9-2.9 15.2-5.3 21.9a86.3 86.3 0 01-20.7 32.6C393 374.3 362 385.2 325 390.6c-23 3.3-48.3 4.5-74.9 4.5a529 529 0 01-75-4.6c-68-9.8-115.7-38.4-115.7-110.3 0-96.3 85.4-174.3 190.7-174.3 95.7 0 175 64.4 188.6 148.3a161 161 0 012.1 26z"></path>
  
    <path fill="#b7e7db" d="M156 387.1c-57.8-12.3-96.7-42-96.7-107 0-9.4.8-18.6 2.4-27.6 19.1 3.4 39.3 17 53.6 38.1a105 105 0 015 8.2 73.6 73.6 0 0021 23.8c4.9 3.6 9.5 8.3 13.3 14 12.3 18.2 12.6 40 1.3 50.5z"></path>
  
    <path fill="#5d8d81" d="M107.1 128.2c-47.4 23-20.8 59 31.7 51.7 7.2-1 13.2-6.2 15.3-13.2 15.1-50.7-17-82-47-38.5zM392.2 128.2c47.4 23 20.8 59-31.8 51.7-7.2-1-13.1-6.2-15.2-13.2-15.1-50.7 17-82 47-38.5z"></path>
  
    <path fill="#7bab9f" d="M297.8 78.3a4.8 4.8 0 01-4.2 5.2c-4.2.4-8.3 1-12.2 2-3.9 1-7.6 2.6-11 4.6a37.6 37.6 0 00-12.9 12.3l-1.5 2.7-.5.9a165.9 165.9 0 00-8.8 0l-1.5-3c-.9-.6-1.8-1.3-2.8-1.8-3-1.6-6.3-2.5-9.6-2.8-6.8-.6-13.7.6-20.5 2.4a3.8 3.8 0 11-1.5-7.5c3.7-.5 7.5-.9 11.3-1 3.8 0 7.7.3 11.5 1.1 2.2.5 4.4 1.2 6.5 2.2-2-2.4-4.3-4.6-6.9-6.5-6.9-5-15.4-7.3-24.1-7.6a5.7 5.7 0 11.4-11.5h.6c5.1.7 10.3 2 15.2 4a47.7 47.7 0 0123 20 65.6 65.6 0 00-11.5-38.4 6.7 6.7 0 1111.7-6.7v.1a76.7 76.7 0 017 44 42 42 0 0110.3-10c4-2.8 8.5-4.9 13-6.3 4.6-1.4 9.2-2.4 13.9-2.8 2.6-.2 5 1.8 5.1 4.4z"></path>
  
    <ellipse cx="250" cy="299.3" fill="#7bab9f" rx="39.7" ry="27.6"></ellipse>
    <path fill="#5d8d81" d="M229.1 315.4c-1.2 1.4-3.3 1.6-5.4.9a8.2 8.2 0 01-4.7-4.3c-1-2-.9-4 .3-5.3 1.4-1.5 3.7-1.8 5.9-.8a8.3 8.3 0 014.1 3.7c1.1 2 1.1 4.3-.2 5.8zM281 312a8.5 8.5 0 01-4.7 4.3c-2 .7-4.1.4-5.4-1-1.2-1.4-1.2-3.6-.2-5.6a8.5 8.5 0 014.2-3.8c2.2-1 4.5-.7 5.8.8 1.2 1.3 1.3 3.4.4 5.4z"></path>
    <path fill="#15212a" d="M281 312a26.6 26.6 0 00-6.1-6.1c-.8.3-1.6.8-2.3 1.4-.8.7-1.4 1.5-1.9 2.4a3 3 0 001 1.5 19 19 0 014.6 5c1.3 2.2 2 4.5 2 7 0 10.2-12.7 18.6-28.3 18.6s-28.3-8.4-28.3-18.7c0-2.4.7-4.7 2-6.8a19 19 0 014.5-5.1c.6-.4 1-1 1-1.6a8.3 8.3 0 00-4-3.7c-.3 0-.6.2-.9.4-2 1.7-3.9 3.6-5.3 5.7a19.5 19.5 0 00-3.6 11.1c0 13.8 15.5 25 34.6 25s34.6-11.2 34.6-25c0-4-1.3-7.7-3.5-11z"></path>
  
    <circle fill="#15212a" cx="180.11" cy="258.32" r="17.11"></circle>
    <circle fill="#fff" cx="174.66" cy="252.88" r="5.44"></circle>
    <circle fill="#15212a" cx="320.02" cy="258.32" r="17.11"></circle>
    <circle fill="#fff" cx="314.58" cy="252.88" r="5.44"></circle>
  
    <path fill="#15212a" d="M333 196.7h-.4l-27.6-2.1a5 5 0 01.8-10l27.5 2a5 5 0 01-.3 10zM166.6 196.7h.4l27.5-2.1a5 5 0 00-.7-10l-27.6 2a5 5 0 00.4 10z"></path>
  
  </svg>