<svg width="375" height="812" viewBox="0 0 375 812" fill="none" xmlns="http://www.w3.org/2000/svg">
<g clip-path="url(#clip0)">
<path d="M813 1015L785.289 990.786C757.578 966.571 702.156 918.143 646.991 896.35C591.698 874.557 536.791 879.4 481.498 869.714C426.333 860.029 370.911 835.814 315.747 868.746C260.453 902.161 205.547 992.239 150.253 1003.86C95.0889 1015 39.6666 947.2 -15.4978 936.546C-70.7911 926.376 -125.698 972.867 -180.991 953.011C-236.156 932.671 -291.578 845.5 -319.289 801.914L-347 758.329L-347 -2.00006H-319.289C-291.578 -2.00006 -236.156 -2.00006 -180.991 -2.00006C-125.698 -2.00006 -70.7911 -2.00006 -15.4978 -2.00006C39.6666 -2.00006 95.0889 -2.00006 150.253 -2.00006C205.547 -2.00006 260.453 -2.00006 315.747 -2.00006C370.911 -2.00006 426.333 -2.00006 481.498 -2.00006C536.791 -2.00006 591.698 -2.00006 646.991 -2.00006C702.156 -2.00006 757.578 -2.00006 785.289 -2.00006H813L813 1015Z" fill="#0093E9"/>
<path d="M813 637.711L785.289 670.129C757.578 702.546 702.156 767.382 646.991 781.646C591.698 796.342 536.791 760.034 481.498 725.455C426.333 690.876 370.911 658.026 315.747 627.769C260.453 597.513 205.547 569.85 150.253 565.527C95.0889 561.205 39.6666 580.223 -15.4978 587.139C-70.7911 594.487 -125.698 590.165 -180.991 597.513C-236.156 604.429 -291.578 623.447 -319.289 632.524L-347 642.033V-2H-319.289C-291.578 -2 -236.156 -2 -180.991 -2C-125.698 -2 -70.7911 -2 -15.4978 -2C39.6666 -2 95.0889 -2 150.253 -2C205.547 -2 260.453 -2 315.747 -2C370.911 -2 426.333 -2 481.498 -2C536.791 -2 591.698 -2 646.991 -2C702.156 -2 757.578 -2 785.289 -2H813L813 637.711Z" fill="#00A7E5"/>
<path d="M813 550L785.289 528.4C757.578 506.457 702.156 463.257 646.991 446.457C591.698 430 536.791 440.286 481.498 450.571C426.333 460.857 370.911 471.143 315.747 456.743C260.453 442.686 205.547 403.6 150.253 407.714C95.0889 411.829 39.6666 458.457 -15.4978 463.6C-70.7911 468.743 -125.698 432.4 -180.991 409.429C-236.156 386.457 -291.578 377.543 -319.289 372.743L-347 368.286V-2H-319.289C-291.578 -2 -236.156 -2 -180.991 -2C-125.698 -2 -70.7911 -2 -15.4978 -2C39.6666 -2 95.0889 -2 150.253 -2C205.547 -2 260.453 -2 315.747 -2C370.911 -2 426.333 -2 481.498 -2C536.791 -2 591.698 -2 646.991 -2C702.156 -2 757.578 -2 785.289 -2H813L813 550Z" fill="#00B7DB"/>
<path d="M813 202.707L785.289 204.815C757.578 206.621 702.156 210.835 646.991 233.715C591.698 256.895 536.791 299.04 481.498 317.705C426.333 336.068 370.911 331.252 315.747 308.975C260.453 286.999 205.547 247.863 150.253 250.874C95.0889 253.884 39.6666 299.04 -15.4978 294.525C-70.7911 290.009 -125.698 235.822 -180.991 219.867C-236.156 203.611 -291.578 225.887 -319.289 236.725L-347 247.863V-2H-319.289C-291.578 -2 -236.156 -2 -180.991 -2C-125.698 -2 -70.7911 -2 -15.4978 -2C39.6666 -2 95.0889 -2 150.253 -2C205.547 -2 260.453 -2 315.747 -2C370.911 -2 426.333 -2 481.498 -2C536.791 -2 591.698 -2 646.991 -2C702.156 -2 757.578 -2 785.289 -2H813V202.707Z" fill="#51C5CF"/>
<path d="M813 158.828L785.289 146.293C757.578 133.521 702.156 108.451 646.991 111.052C591.698 113.89 536.791 144.637 481.498 157.645C426.333 170.653 370.911 165.923 315.747 160.483C260.453 154.807 205.547 148.658 150.253 132.811C95.0889 116.965 39.6666 91.895 -15.4978 83.6171C-70.7911 75.3392 -125.698 83.8536 -180.991 93.787C-236.156 103.72 -291.578 114.6 -319.289 120.276L-347 125.716V-2H-319.289C-291.578 -2 -236.156 -2 -180.991 -2C-125.698 -2 -70.7911 -2 -15.4978 -2C39.6666 -2 95.0889 -2 150.253 -2C205.547 -2 260.453 -2 315.747 -2C370.911 -2 426.333 -2 481.498 -2C536.791 -2 591.698 -2 646.991 -2C702.156 -2 757.578 -2 785.289 -2H813V158.828Z" fill="#80D0C7"/>
</g>
<defs>
<clipPath id="clip0">
<rect width="1160" height="966" fill="white" transform="translate(813 966) rotate(-180)"/>
</clipPath>
</defs>
</svg>
