<svg width="375" height="371" viewBox="0 0 375 371" fill="none" xmlns="http://www.w3.org/2000/svg">
<g clip-path="url(#clip0)">
<path d="M255.145 129.75L294.012 115.604L307.945 153.886C320.75 189.068 302.109 228.267 266.391 241.268C230.673 254.268 191.196 236.222 178.391 201.04L121.591 44.983C144.912 27.2878 155.176 -3.82896 144.777 -32.3994C131.951 -67.6387 92.5521 -85.6481 56.777 -72.6271C21.002 -59.606 2.39693 -20.4848 15.223 14.7544C25.6218 43.3249 53.4858 60.5643 82.7249 59.1291L139.525 215.186C160.046 271.568 223.084 300.385 280.325 279.551C337.566 258.717 367.333 196.122 346.811 139.74L291.076 -13.3909L255.145 129.75ZM89.2892 16.6994C74.98 21.9075 59.2196 14.704 54.0892 0.608289C48.9588 -13.4874 56.4016 -29.1362 70.7108 -34.3443C85.0201 -39.5525 100.78 -32.349 105.911 -18.2532C111.041 -4.15753 103.598 11.4912 89.2892 16.6994Z" fill="#893CC6" fill-opacity="0.2"/>
</g>
<defs>
<clipPath id="clip0">
<rect width="413.606" height="407.397" fill="white" transform="translate(-86 -12.5386) rotate(-20)"/>
</clipPath>
</defs>
</svg>
