<svg width="375" height="812" viewBox="0 0 375 812" fill="none" xmlns="http://www.w3.org/2000/svg">
<g clip-path="url(#clip0)">
<path d="M814 336.49L786.289 328.44C758.578 320.39 703.156 304.29 647.991 297.045C592.698 289.8 537.791 291.41 482.498 288.19C427.333 284.97 371.911 276.92 316.747 287.868C261.453 298.977 206.547 328.923 151.253 332.787C96.0889 336.49 40.6666 313.95 -14.4978 310.408C-69.7911 307.027 -124.698 322.483 -179.991 315.882C-235.156 309.12 -290.578 280.14 -318.289 265.65L-346 251.16V-1.60999H-318.289C-290.578 -1.60999 -235.156 -1.60999 -179.991 -1.60999C-124.698 -1.60999 -69.7911 -1.60999 -14.4978 -1.60999C40.6666 -1.60999 96.0889 -1.60999 151.253 -1.60999C206.547 -1.60999 261.453 -1.60999 316.747 -1.60999C371.911 -1.60999 427.333 -1.60999 482.498 -1.60999C537.791 -1.60999 592.698 -1.60999 647.991 -1.60999C703.156 -1.60999 758.578 -1.60999 786.289 -1.60999H814V336.49Z" fill="#0093E9"/>
<path d="M814 236.67L786.289 248.745C758.578 260.82 703.156 284.97 647.991 290.283C592.698 295.757 537.791 282.233 482.498 269.353C427.333 256.473 371.911 244.237 316.747 232.967C261.453 221.697 206.547 211.393 151.253 209.783C96.0889 208.173 40.6666 215.257 -14.4978 217.833C-69.7911 220.57 -124.698 218.96 -179.991 221.697C-235.156 224.273 -290.578 231.357 -318.289 234.738L-346 238.28V-1.60999H-318.289C-290.578 -1.60999 -235.156 -1.60999 -179.991 -1.60999C-124.698 -1.60999 -69.7911 -1.60999 -14.4978 -1.60999C40.6666 -1.60999 96.0889 -1.60999 151.253 -1.60999C206.547 -1.60999 261.453 -1.60999 316.747 -1.60999C371.911 -1.60999 427.333 -1.60999 482.498 -1.60999C537.791 -1.60999 592.698 -1.60999 647.991 -1.60999C703.156 -1.60999 758.578 -1.60999 786.289 -1.60999H814V236.67Z" fill="#00A7E5"/>
<path d="M814 257.6L786.289 247.457C758.578 237.153 703.156 216.867 647.991 208.978C592.698 201.25 537.791 206.08 482.498 210.91C427.333 215.74 371.911 220.57 316.747 213.808C261.453 207.207 206.547 188.853 151.253 190.785C96.0889 192.717 40.6666 214.613 -14.4978 217.028C-69.7911 219.443 -124.698 202.377 -179.991 191.59C-235.156 180.803 -290.578 176.617 -318.289 174.363L-346 172.27V-1.60999H-318.289C-290.578 -1.60999 -235.156 -1.60999 -179.991 -1.60999C-124.698 -1.60999 -69.7911 -1.60999 -14.4978 -1.60999C40.6666 -1.60999 96.0889 -1.60999 151.253 -1.60999C206.547 -1.60999 261.453 -1.60999 316.747 -1.60999C371.911 -1.60999 427.333 -1.60999 482.498 -1.60999C537.791 -1.60999 592.698 -1.60999 647.991 -1.60999C703.156 -1.60999 758.578 -1.60999 786.289 -1.60999H814V257.6Z" fill="#00B7DB"/>
<path d="M814 107.87L786.289 108.997C758.578 109.963 703.156 112.217 647.991 124.453C592.698 136.85 537.791 159.39 482.498 169.372C427.333 179.193 371.911 176.617 316.747 164.703C261.453 152.95 206.547 132.02 151.253 133.63C96.0889 135.24 40.6666 159.39 -14.4978 156.975C-69.7911 154.56 -124.698 125.58 -179.991 117.047C-235.156 108.353 -290.578 120.267 -318.289 126.063L-346 132.02V-1.60992H-318.289C-290.578 -1.60992 -235.156 -1.60992 -179.991 -1.60992C-124.698 -1.60992 -69.7911 -1.60992 -14.4978 -1.60992C40.6666 -1.60992 96.0889 -1.60992 151.253 -1.60992C206.547 -1.60992 261.453 -1.60992 316.747 -1.60992C371.911 -1.60992 427.333 -1.60992 482.498 -1.60992C537.791 -1.60992 592.698 -1.60992 647.991 -1.60992C703.156 -1.60992 758.578 -1.60992 786.289 -1.60992H814V107.87Z" fill="#51C5CF"/>
<path d="M814 107.87L786.289 99.337C758.578 90.643 703.156 73.577 647.991 75.348C592.698 77.28 537.791 98.21 482.498 107.065C427.333 115.92 371.911 112.7 316.747 108.997C261.453 105.133 206.547 100.947 151.253 90.16C96.0889 79.373 40.6666 62.307 -14.4978 56.672C-69.7911 51.037 -124.698 56.833 -179.991 63.595C-235.156 70.357 -290.578 77.763 -318.289 81.627L-346 85.33V-1.60999H-318.289C-290.578 -1.60999 -235.156 -1.60999 -179.991 -1.60999C-124.698 -1.60999 -69.7911 -1.60999 -14.4978 -1.60999C40.6666 -1.60999 96.0889 -1.60999 151.253 -1.60999C206.547 -1.60999 261.453 -1.60999 316.747 -1.60999C371.911 -1.60999 427.333 -1.60999 482.498 -1.60999C537.791 -1.60999 592.698 -1.60999 647.991 -1.60999C703.156 -1.60999 758.578 -1.60999 786.289 -1.60999H814V107.87Z" fill="#80D0C7"/>
</g>
<defs>
<clipPath id="clip0">
<rect width="1160" height="966" fill="white" transform="translate(814 966) rotate(-180)"/>
</clipPath>
</defs>
</svg>
