<svg id="visual" viewBox="0 0 900 600" width="900" height="600" xmlns="http://www.w3.org/2000/svg" xmlns:xlink="http://www.w3.org/1999/xlink" version="1.1"><path d="M0 545L16.7 540.3C33.3 535.7 66.7 526.3 100 527.8C133.3 529.3 166.7 541.7 200 545.3C233.3 549 266.7 544 300 540.7C333.3 537.3 366.7 535.7 400 537.7C433.3 539.7 466.7 545.3 500 544.3C533.3 543.3 566.7 535.7 600 526.8C633.3 518 666.7 508 700 509C733.3 510 766.7 522 800 526.5C833.3 531 866.7 528 883.3 526.5L900 525L900 0L883.3 0C866.7 0 833.3 0 800 0C766.7 0 733.3 0 700 0C666.7 0 633.3 0 600 0C566.7 0 533.3 0 500 0C466.7 0 433.3 0 400 0C366.7 0 333.3 0 300 0C266.7 0 233.3 0 200 0C166.7 0 133.3 0 100 0C66.7 0 33.3 0 16.7 0L0 0Z" fill="#0093e9"></path><path d="M0 455L16.7 459.5C33.3 464 66.7 473 100 473.5C133.3 474 166.7 466 200 455.5C233.3 445 266.7 432 300 430.7C333.3 429.3 366.7 439.7 400 447.7C433.3 455.7 466.7 461.3 500 457C533.3 452.7 566.7 438.3 600 432.3C633.3 426.3 666.7 428.7 700 437.3C733.3 446 766.7 461 800 460.5C833.3 460 866.7 444 883.3 436L900 428L900 0L883.3 0C866.7 0 833.3 0 800 0C766.7 0 733.3 0 700 0C666.7 0 633.3 0 600 0C566.7 0 533.3 0 500 0C466.7 0 433.3 0 400 0C366.7 0 333.3 0 300 0C266.7 0 233.3 0 200 0C166.7 0 133.3 0 100 0C66.7 0 33.3 0 16.7 0L0 0Z" fill="#00a1e7"></path><path d="M0 352L16.7 360.5C33.3 369 66.7 386 100 389C133.3 392 166.7 381 200 378.2C233.3 375.3 266.7 380.7 300 383.2C333.3 385.7 366.7 385.3 400 389.2C433.3 393 466.7 401 500 393.3C533.3 385.7 566.7 362.3 600 361.3C633.3 360.3 666.7 381.7 700 385.8C733.3 390 766.7 377 800 375.5C833.3 374 866.7 384 883.3 389L900 394L900 0L883.3 0C866.7 0 833.3 0 800 0C766.7 0 733.3 0 700 0C666.7 0 633.3 0 600 0C566.7 0 533.3 0 500 0C466.7 0 433.3 0 400 0C366.7 0 333.3 0 300 0C266.7 0 233.3 0 200 0C166.7 0 133.3 0 100 0C66.7 0 33.3 0 16.7 0L0 0Z" fill="#00ace2"></path><path d="M0 309L16.7 308.5C33.3 308 66.7 307 100 307.5C133.3 308 166.7 310 200 303.2C233.3 296.3 266.7 280.7 300 275.3C333.3 270 366.7 275 400 280C433.3 285 466.7 290 500 296.7C533.3 303.3 566.7 311.7 600 317.8C633.3 324 666.7 328 700 324.7C733.3 321.3 766.7 310.7 800 304C833.3 297.3 866.7 294.7 883.3 293.3L900 292L900 0L883.3 0C866.7 0 833.3 0 800 0C766.7 0 733.3 0 700 0C666.7 0 633.3 0 600 0C566.7 0 533.3 0 500 0C466.7 0 433.3 0 400 0C366.7 0 333.3 0 300 0C266.7 0 233.3 0 200 0C166.7 0 133.3 0 100 0C66.7 0 33.3 0 16.7 0L0 0Z" fill="#00b7db"></path><path d="M0 216L16.7 211.7C33.3 207.3 66.7 198.7 100 204.2C133.3 209.7 166.7 229.3 200 231.8C233.3 234.3 266.7 219.7 300 216.2C333.3 212.7 366.7 220.3 400 228.8C433.3 237.3 466.7 246.7 500 243.3C533.3 240 566.7 224 600 218.7C633.3 213.3 666.7 218.7 700 227.5C733.3 236.3 766.7 248.7 800 247.8C833.3 247 866.7 233 883.3 226L900 219L900 0L883.3 0C866.7 0 833.3 0 800 0C766.7 0 733.3 0 700 0C666.7 0 633.3 0 600 0C566.7 0 533.3 0 500 0C466.7 0 433.3 0 400 0C366.7 0 333.3 0 300 0C266.7 0 233.3 0 200 0C166.7 0 133.3 0 100 0C66.7 0 33.3 0 16.7 0L0 0Z" fill="#3ec0d3"></path><path d="M0 140L16.7 141.2C33.3 142.3 66.7 144.7 100 143.3C133.3 142 166.7 137 200 133C233.3 129 266.7 126 300 123.2C333.3 120.3 366.7 117.7 400 118.5C433.3 119.3 466.7 123.7 500 134.5C533.3 145.3 566.7 162.7 600 169.8C633.3 177 666.7 174 700 172.2C733.3 170.3 766.7 169.7 800 166.7C833.3 163.7 866.7 158.3 883.3 155.7L900 153L900 0L883.3 0C866.7 0 833.3 0 800 0C766.7 0 733.3 0 700 0C666.7 0 633.3 0 600 0C566.7 0 533.3 0 500 0C466.7 0 433.3 0 400 0C366.7 0 333.3 0 300 0C266.7 0 233.3 0 200 0C166.7 0 133.3 0 100 0C66.7 0 33.3 0 16.7 0L0 0Z" fill="#62c9cc"></path><path d="M0 104L16.7 99.8C33.3 95.7 66.7 87.3 100 78.2C133.3 69 166.7 59 200 53C233.3 47 266.7 45 300 49C333.3 53 366.7 63 400 69.7C433.3 76.3 466.7 79.7 500 80.8C533.3 82 566.7 81 600 85.3C633.3 89.7 666.7 99.3 700 101.3C733.3 103.3 766.7 97.7 800 93.8C833.3 90 866.7 88 883.3 87L900 86L900 0L883.3 0C866.7 0 833.3 0 800 0C766.7 0 733.3 0 700 0C666.7 0 633.3 0 600 0C566.7 0 533.3 0 500 0C466.7 0 433.3 0 400 0C366.7 0 333.3 0 300 0C266.7 0 233.3 0 200 0C166.7 0 133.3 0 100 0C66.7 0 33.3 0 16.7 0L0 0Z" fill="#80d0c7"></path></svg>