<svg width="375" height="804" viewBox="0 0 375 804" fill="none" xmlns="http://www.w3.org/2000/svg">
<g clip-path="url(#clip0)">
<path d="M814 174.49L786.289 166.44C758.578 158.39 703.156 142.29 647.991 135.045C592.698 127.8 537.791 129.41 482.498 126.19C427.333 122.97 371.911 114.92 316.747 125.868C261.453 136.977 206.547 166.923 151.253 170.787C96.0889 174.49 40.6666 151.95 -14.4978 148.408C-69.7911 145.027 -124.698 160.483 -179.991 153.882C-235.156 147.12 -290.578 118.14 -318.289 103.65L-346 89.16V-163.61H-318.289C-290.578 -163.61 -235.156 -163.61 -179.991 -163.61C-124.698 -163.61 -69.7911 -163.61 -14.4978 -163.61C40.6666 -163.61 96.0889 -163.61 151.253 -163.61C206.547 -163.61 261.453 -163.61 316.747 -163.61C371.911 -163.61 427.333 -163.61 482.498 -163.61C537.791 -163.61 592.698 -163.61 647.991 -163.61C703.156 -163.61 758.578 -163.61 786.289 -163.61H814V174.49Z" fill="#0093E9"/>
<path d="M814 74.67L786.289 86.745C758.578 98.82 703.156 122.97 647.991 128.283C592.698 133.757 537.791 120.233 482.498 107.353C427.333 94.4729 371.911 82.237 316.747 70.967C261.453 59.697 206.547 49.393 151.253 47.783C96.0889 46.173 40.6666 53.257 -14.4978 55.8329C-69.7911 58.5699 -124.698 56.96 -179.991 59.697C-235.156 62.273 -290.578 69.3569 -318.289 72.7379L-346 76.28V-163.61H-318.289C-290.578 -163.61 -235.156 -163.61 -179.991 -163.61C-124.698 -163.61 -69.7911 -163.61 -14.4978 -163.61C40.6666 -163.61 96.0889 -163.61 151.253 -163.61C206.547 -163.61 261.453 -163.61 316.747 -163.61C371.911 -163.61 427.333 -163.61 482.498 -163.61C537.791 -163.61 592.698 -163.61 647.991 -163.61C703.156 -163.61 758.578 -163.61 786.289 -163.61H814V74.67Z" fill="#00A7E5"/>
<path d="M814 95.6L786.289 85.457C758.578 75.153 703.156 54.867 647.991 46.978C592.698 39.25 537.791 44.08 482.498 48.91C427.333 53.74 371.911 58.57 316.747 51.808C261.453 45.207 206.547 26.853 151.253 28.785C96.0889 30.717 40.6666 52.613 -14.4978 55.028C-69.7911 57.443 -124.698 40.377 -179.991 29.59C-235.156 18.803 -290.578 14.617 -318.289 12.363L-346 10.27V-163.61H-318.289C-290.578 -163.61 -235.156 -163.61 -179.991 -163.61C-124.698 -163.61 -69.7911 -163.61 -14.4978 -163.61C40.6666 -163.61 96.0889 -163.61 151.253 -163.61C206.547 -163.61 261.453 -163.61 316.747 -163.61C371.911 -163.61 427.333 -163.61 482.498 -163.61C537.791 -163.61 592.698 -163.61 647.991 -163.61C703.156 -163.61 758.578 -163.61 786.289 -163.61H814V95.6Z" fill="#00B7DB"/>
<path d="M814 -54.1299L786.289 -53.0029C758.578 -52.0369 703.156 -49.783 647.991 -37.547C592.698 -25.15 537.791 -2.60993 482.498 7.37207C427.333 17.1931 371.911 14.617 316.747 2.70303C261.453 -9.04997 206.547 -29.9799 151.253 -28.3699C96.0889 -26.7599 40.6666 -2.60995 -14.4978 -5.02495C-69.7911 -7.43995 -124.698 -36.4199 -179.991 -44.9529C-235.156 -53.6469 -290.578 -41.733 -318.289 -35.937L-346 -29.9799V-163.61H-318.289C-290.578 -163.61 -235.156 -163.61 -179.991 -163.61C-124.698 -163.61 -69.7911 -163.61 -14.4978 -163.61C40.6666 -163.61 96.0889 -163.61 151.253 -163.61C206.547 -163.61 261.453 -163.61 316.747 -163.61C371.911 -163.61 427.333 -163.61 482.498 -163.61C537.791 -163.61 592.698 -163.61 647.991 -163.61C703.156 -163.61 758.578 -163.61 786.289 -163.61H814V-54.1299Z" fill="#51C5CF"/>
</g>
<defs>
<clipPath id="clip0">
<rect width="1160" height="966" fill="white" transform="translate(814 804) rotate(-180)"/>
</clipPath>
</defs>
</svg>
