<svg id="visual" viewBox="0 0 1000 800" width="1000" height="800" xmlns="http://www.w3.org/2000/svg" xmlns:xlink="http://www.w3.org/1999/xlink" version="1.1"><path d="M0 121L41.7 127.7C83.3 134.3 166.7 147.7 250 157C333.3 166.3 416.7 171.7 500 169C583.3 166.3 666.7 155.7 750 154.3C833.3 153 916.7 161 958.3 165L1000 169L1000 0L958.3 0C916.7 0 833.3 0 750 0C666.7 0 583.3 0 500 0C416.7 0 333.3 0 250 0C166.7 0 83.3 0 41.7 0L0 0Z" fill="#80d0c7"></path><path d="M0 409L41.7 402.3C83.3 395.7 166.7 382.3 250 375.7C333.3 369 416.7 369 500 378.3C583.3 387.7 666.7 406.3 750 418.3C833.3 430.3 916.7 435.7 958.3 438.3L1000 441L1000 167L958.3 163C916.7 159 833.3 151 750 152.3C666.7 153.7 583.3 164.3 500 167C416.7 169.7 333.3 164.3 250 155C166.7 145.7 83.3 132.3 41.7 125.7L0 119Z" fill="#51c5cf"></path><path d="M0 585L41.7 587.7C83.3 590.3 166.7 595.7 250 594.3C333.3 593 416.7 585 500 586.3C583.3 587.7 666.7 598.3 750 609C833.3 619.7 916.7 630.3 958.3 635.7L1000 641L1000 439L958.3 436.3C916.7 433.7 833.3 428.3 750 416.3C666.7 404.3 583.3 385.7 500 376.3C416.7 367 333.3 367 250 373.7C166.7 380.3 83.3 393.7 41.7 400.3L0 407Z" fill="#00b7db"></path><path d="M0 705L41.7 710.3C83.3 715.7 166.7 726.3 250 727.7C333.3 729 416.7 721 500 713C583.3 705 666.7 697 750 698.3C833.3 699.7 916.7 710.3 958.3 715.7L1000 721L1000 639L958.3 633.7C916.7 628.3 833.3 617.7 750 607C666.7 596.3 583.3 585.7 500 584.3C416.7 583 333.3 591 250 592.3C166.7 593.7 83.3 588.3 41.7 585.7L0 583Z" fill="#00a7e5"></path><path d="M0 801L41.7 801C83.3 801 166.7 801 250 801C333.3 801 416.7 801 500 801C583.3 801 666.7 801 750 801C833.3 801 916.7 801 958.3 801L1000 801L1000 719L958.3 713.7C916.7 708.3 833.3 697.7 750 696.3C666.7 695 583.3 703 500 711C416.7 719 333.3 727 250 725.7C166.7 724.3 83.3 713.7 41.7 708.3L0 703Z" fill="#0093e9"></path></svg>